<?xml version="1.0" standalone="no"?>
<!DOCTYPE svg PUBLIC "-//W3C//DTD SVG 20010904//EN"
 "http://www.w3.org/TR/2001/REC-SVG-20010904/DTD/svg10.dtd">
<svg version="1.0" xmlns="http://www.w3.org/2000/svg"
 width="700.000000pt" height="700.000000pt" viewBox="0 0 700.000000 700.000000"
 preserveAspectRatio="xMidYMid meet">
<metadata>
Created by potrace 1.11, written by Peter Selinger 2001-2013
</metadata>
<g transform="translate(0.000000,700.000000) scale(0.100000,-0.100000)"
fill="#000000" stroke="none">
<path d="M1498 6995 c-1 -1 -30 -6 -63 -10 -276 -31 -584 -160 -815 -343 -132
-104 -294 -291 -385 -441 -82 -137 -162 -331 -191 -466 -2 -11 -6 -31 -9 -45
-22 -97 -32 -224 -30 -370 2 -91 6 -175 8 -187 3 -11 9 -43 13 -70 11 -78 62
-251 101 -343 46 -105 101 -209 156 -290 77 -114 218 -266 328 -355 138 -112
336 -223 487 -274 140 -47 251 -71 402 -87 48 -5 280 -5 305 0 11 2 47 7 80
11 73 8 261 56 335 85 303 118 557 309 746 563 161 215 263 458 308 737 14 87
16 424 2 485 -3 17 -13 64 -21 105 -58 296 -215 581 -449 816 -252 252 -525
395 -879 460 -70 13 -419 29 -429 19z"/>
<path d="M3510 5266 l0 -1734 -1707 0 c-940 -1 -1729 -1 -1755 -2 l-48 0 0
-53 0 -53 1752 0 1753 0 3 -1712 2 -1712 55 0 55 0 0 1710 c0 1361 3 1710 13
1711 6 1 761 2 1677 3 l1665 1 3 53 c2 37 -1 52 -10 53 -7 0 -763 0 -1680 1
l-1668 0 0 1734 0 1734 -55 0 -55 0 0 -1734z"/>
<path d="M5135 6985 c-181 -25 -338 -72 -500 -151 -96 -47 -98 -48 -190 -108
-177 -117 -345 -284 -469 -471 -90 -135 -204 -398 -222 -514 -3 -20 -8 -39
-10 -42 -2 -4 -6 -24 -10 -45 -3 -22 -10 -59 -14 -84 -14 -75 -5 -415 13 -510
40 -208 136 -446 248 -615 29 -44 55 -82 58 -85 4 -3 29 -32 56 -65 254 -305
592 -495 1010 -568 107 -19 375 -19 495 -1 348 54 662 214 910 463 116 116
124 126 192 221 149 210 253 480 285 741 10 79 10 336 0 404 -43 306 -139 543
-316 785 -63 87 -229 255 -316 322 -212 161 -481 276 -745 318 -105 17 -368
20 -475 5z"/>
<path d="M1535 3289 c-153 -13 -284 -38 -410 -81 -577 -196 -988 -674 -1101
-1279 -35 -190 -23 -502 27 -694 164 -622 687 -1105 1310 -1209 19 -3 45 -8
59 -12 53 -13 366 -11 460 3 535 78 1002 417 1238 898 61 122 119 286 138 385
13 70 23 132 29 186 6 50 6 281 1 314 -2 14 -7 52 -11 84 -10 84 -59 269 -95
362 -208 523 -658 901 -1207 1013 -57 12 -147 24 -200 27 -54 3 -111 6 -128 7
-16 2 -66 0 -110 -4z"/>
<path d="M5327 3294 c-1 -1 -45 -4 -97 -7 -52 -4 -105 -9 -116 -11 -12 -2 -39
-7 -59 -10 -192 -31 -440 -132 -617 -252 -387 -263 -643 -666 -715 -1129 -10
-66 -10 -406 0 -470 79 -485 325 -872 727 -1145 41 -27 78 -50 82 -50 4 0 29
-13 55 -28 114 -67 332 -141 508 -172 39 -7 144 -14 235 -15 275 -4 495 44
739 162 367 176 665 494 812 866 29 72 76 226 83 272 4 21 8 47 11 59 14 63
17 95 20 246 3 154 -8 274 -40 423 -23 111 -109 320 -184 452 -96 166 -261
351 -428 478 -34 26 -66 47 -71 47 -6 0 -12 4 -14 8 -5 13 -122 81 -210 121
-166 76 -322 120 -498 140 -87 10 -218 19 -223 15z"/>
</g>
</svg>
