<svg width="1202" height="427" viewBox="0 0 1202 427" fill="none" xmlns="http://www.w3.org/2000/svg">
<g clip-path="url(#clip0)">
<path d="M239 73C228.507 73 220 81.5066 220 92V325C220 335.493 228.507 344 239 344H1039C1049.49 344 1058 335.493 1058 325V231.554C1058 226.437 1055.94 221.536 1052.28 217.961L909.388 78.4073C905.838 74.9407 901.074 73 896.112 73H800H600.5H239Z" fill="white" stroke="#5A473A" stroke-width="14"/>
<circle cx="250.5" cy="208.5" r="192.5" fill="#5A473A"/>
<path d="M197.761 327.88C182.209 327.88 167.617 324.904 153.985 318.952C140.545 313 128.641 304.744 118.273 294.184C108.097 283.432 100.128 271.144 94.3685 257.32C88.6085 243.304 85.7285 228.328 85.7285 212.392C85.7285 196.648 88.5125 181.864 94.0805 168.04C99.8405 154.024 107.808 141.736 117.985 131.176C128.353 120.616 140.257 112.36 153.696 106.408C167.329 100.264 182.017 97.192 197.761 97.192C211.585 97.192 224.16 99.208 235.489 103.24C246.817 107.272 257.761 113.704 268.321 122.536C270.049 123.88 271.009 125.512 271.201 127.432C271.585 129.16 271.393 130.888 270.625 132.616C269.857 134.152 268.705 135.304 267.169 136.072C266.785 137.608 265.825 138.76 264.289 139.528C262.753 140.296 260.929 140.584 258.817 140.392C256.897 140.2 254.977 139.336 253.056 137.8C245.569 131.272 237.409 126.472 228.577 123.4C219.745 120.136 209.473 118.504 197.761 118.504C185.281 118.504 173.569 121 162.625 125.992C151.873 130.984 142.368 137.8 134.112 146.44C125.856 155.08 119.328 165.064 114.528 176.392C109.92 187.72 107.617 199.72 107.617 212.392C107.617 225.448 109.92 237.64 114.528 248.968C119.328 260.296 125.856 270.28 134.112 278.92C142.368 287.56 151.873 294.376 162.625 299.368C173.569 304.168 185.281 306.568 197.761 306.568C208.321 306.568 218.305 304.84 227.712 301.384C237.121 297.928 246.049 292.936 254.496 286.408C256.801 284.488 259.201 283.72 261.697 284.104C264.385 284.488 266.689 285.64 268.609 287.56C270.529 289.48 271.489 291.976 271.489 295.048C271.489 296.584 271.297 298.024 270.913 299.368C270.529 300.52 269.665 301.768 268.321 303.112C258.529 312.136 247.585 318.568 235.489 322.408C223.393 326.056 210.817 327.88 197.761 327.88ZM271.489 295.048L249.601 290.44V232.552H204.673C201.409 232.552 198.721 231.592 196.609 229.672C194.497 227.752 193.441 225.352 193.441 222.472C193.441 219.592 194.497 217.288 196.609 215.56C198.721 213.64 201.409 212.68 204.673 212.68H260.257C263.521 212.68 266.209 213.736 268.321 215.848C270.433 217.768 271.489 220.36 271.489 223.624V295.048ZM331.521 326.44C316.161 326.44 302.433 322.984 290.337 316.072C278.241 309.16 268.737 299.656 261.825 287.56C254.913 275.464 251.457 261.736 251.457 246.376C251.457 230.824 254.913 217 261.825 204.904C268.737 192.808 278.241 183.304 290.337 176.392C302.433 169.48 316.161 166.024 331.521 166.024C346.881 166.024 360.513 169.48 372.417 176.392C384.513 183.304 394.017 192.808 400.929 204.904C407.841 217 411.393 230.824 411.585 246.376C411.585 261.736 408.033 275.464 400.929 287.56C394.017 299.656 384.513 309.16 372.417 316.072C360.513 322.984 346.881 326.44 331.521 326.44ZM331.521 306.28C342.657 306.28 352.641 303.688 361.473 298.504C370.305 293.32 377.217 286.216 382.209 277.192C387.201 268.168 389.697 257.896 389.697 246.376C389.697 234.856 387.201 224.584 382.209 215.56C377.217 206.344 370.305 199.144 361.473 193.96C352.641 188.776 342.657 186.184 331.521 186.184C320.385 186.184 310.401 188.776 301.569 193.96C292.737 199.144 285.729 206.344 280.545 215.56C275.553 224.584 273.057 234.856 273.057 246.376C273.057 257.896 275.553 268.168 280.545 277.192C285.729 286.216 292.737 293.32 301.569 298.504C310.401 303.688 320.385 306.28 331.521 306.28Z" fill="white"/>
<path d="M511.442 325C501.266 325 492.146 322.6 484.082 317.8C476.21 313 469.97 306.472 465.362 298.216C460.754 289.768 458.45 280.168 458.45 269.416V128.584C458.45 125.32 459.41 122.632 461.33 120.52C463.442 118.408 466.13 117.352 469.394 117.352C472.658 117.352 475.346 118.408 477.458 120.52C479.57 122.632 480.626 125.32 480.626 128.584V269.416C480.626 279.208 483.506 287.272 489.266 293.608C495.026 299.752 502.418 302.824 511.442 302.824H519.218C522.29 302.824 524.786 303.88 526.706 305.992C528.626 308.104 529.586 310.792 529.586 314.056C529.586 317.32 528.434 320.008 526.13 322.12C523.826 324.04 520.946 325 517.49 325H511.442ZM439.73 192.52C436.85 192.52 434.45 191.656 432.53 189.928C430.61 188.008 429.65 185.704 429.65 183.016C429.65 180.136 430.61 177.832 432.53 176.104C434.45 174.184 436.85 173.224 439.73 173.224H513.17C516.05 173.224 518.45 174.184 520.37 176.104C522.29 177.832 523.25 180.136 523.25 183.016C523.25 185.704 522.29 188.008 520.37 189.928C518.45 191.656 516.05 192.52 513.17 192.52H439.73ZM656.117 325C652.853 325 650.165 323.944 648.053 321.832C645.941 319.72 644.885 317.128 644.885 314.056V239.176C644.885 227.272 642.581 217.48 637.973 209.8C633.557 202.12 627.413 196.36 619.541 192.52C611.861 188.68 603.125 186.76 593.333 186.76C583.925 186.76 575.381 188.584 567.701 192.232C560.213 195.88 554.261 200.872 549.845 207.208C545.429 213.544 543.221 220.744 543.221 228.808H527.381C527.765 216.712 531.029 205.96 537.173 196.552C543.317 186.952 551.477 179.464 561.653 174.088C571.829 168.52 583.157 165.736 595.637 165.736C609.269 165.736 621.461 168.616 632.213 174.376C642.965 179.944 651.413 188.2 657.557 199.144C663.893 210.088 667.061 223.432 667.061 239.176V314.056C667.061 317.128 666.005 319.72 663.893 321.832C661.781 323.944 659.189 325 656.117 325ZM532.277 325C528.821 325 526.037 324.04 523.925 322.12C522.005 320.008 521.045 317.32 521.045 314.056V178.696C521.045 175.24 522.005 172.552 523.925 170.632C526.037 168.52 528.821 167.464 532.277 167.464C535.541 167.464 538.133 168.52 540.053 170.632C542.165 172.552 543.221 175.24 543.221 178.696V314.056C543.221 317.32 542.165 320.008 540.053 322.12C538.133 324.04 535.541 325 532.277 325ZM532.277 260.776C528.821 260.776 526.037 259.72 523.925 257.608C522.005 255.496 521.045 252.808 521.045 249.544V111.304C521.045 107.848 522.005 105.16 523.925 103.24C526.037 101.128 528.821 100.072 532.277 100.072C535.541 100.072 538.133 101.128 540.053 103.24C542.165 105.16 543.221 107.848 543.221 111.304V249.544C543.221 252.808 542.165 255.496 540.053 257.608C538.133 259.72 535.541 260.776 532.277 260.776ZM742.735 326.44C727.183 326.44 713.359 323.08 701.263 316.36C689.359 309.448 679.951 299.944 673.039 287.848C666.319 275.752 662.959 261.928 662.959 246.376C662.959 230.632 666.127 216.808 672.463 204.904C678.991 192.808 687.919 183.304 699.247 176.392C710.575 169.48 723.631 166.024 738.415 166.024C753.007 166.024 765.679 169.384 776.431 176.104C787.375 182.632 795.823 191.752 801.775 203.464C807.727 215.176 810.703 228.52 810.703 243.496C810.703 246.568 809.743 249.064 807.823 250.984C805.903 252.712 803.407 253.576 800.335 253.576H677.935V235.144H802.639L790.255 244.072C790.447 232.936 788.431 222.952 784.207 214.12C779.983 205.288 773.935 198.376 766.063 193.384C758.383 188.392 749.167 185.896 738.415 185.896C727.471 185.896 717.871 188.488 709.615 193.672C701.359 198.856 694.927 206.056 690.319 215.272C685.903 224.296 683.695 234.664 683.695 246.376C683.695 258.088 686.191 268.456 691.183 277.48C696.367 286.504 703.375 293.608 712.207 298.792C721.039 303.976 731.215 306.568 742.735 306.568C749.647 306.568 756.559 305.416 763.471 303.112C770.575 300.616 776.239 297.544 780.463 293.896C782.575 292.168 784.975 291.304 787.663 291.304C790.351 291.112 792.655 291.784 794.575 293.32C797.071 295.624 798.319 298.12 798.319 300.808C798.511 303.496 797.455 305.8 795.151 307.72C788.815 313.096 780.751 317.608 770.959 321.256C761.167 324.712 751.759 326.44 742.735 326.44ZM837.562 325C829.882 325 822.97 322.888 816.826 318.664C810.874 314.44 806.17 308.584 802.714 301.096C799.45 293.608 797.818 284.968 797.818 275.176V111.016C797.818 107.752 798.778 105.16 800.698 103.24C802.81 101.128 805.498 100.072 808.762 100.072C812.026 100.072 814.618 101.128 816.538 103.24C818.65 105.16 819.706 107.752 819.706 111.016V275.176C819.706 283.432 821.338 290.152 824.602 295.336C828.058 300.52 832.378 303.112 837.562 303.112H844.762C847.642 303.112 849.946 304.168 851.674 306.28C853.402 308.2 854.266 310.792 854.266 314.056C854.266 317.32 853.018 320.008 850.522 322.12C848.218 324.04 845.146 325 841.306 325H837.562ZM874.203 325C866.523 325 859.611 322.888 853.467 318.664C847.515 314.44 842.811 308.584 839.355 301.096C836.091 293.608 834.459 284.968 834.459 275.176V111.016C834.459 107.752 835.419 105.16 837.339 103.24C839.451 101.128 842.139 100.072 845.403 100.072C848.667 100.072 851.259 101.128 853.179 103.24C855.291 105.16 856.347 107.752 856.347 111.016V275.176C856.347 283.432 857.979 290.152 861.243 295.336C864.699 300.52 869.019 303.112 874.203 303.112H881.403C884.283 303.112 886.587 304.168 888.315 306.28C890.043 308.2 890.907 310.792 890.907 314.056C890.907 317.32 889.659 320.008 887.163 322.12C884.859 324.04 881.787 325 877.947 325H874.203ZM939.853 326.44C924.493 326.44 910.765 322.984 898.669 316.072C886.573 309.16 877.069 299.656 870.157 287.56C863.245 275.464 859.789 261.736 859.789 246.376C859.789 230.824 863.245 217 870.157 204.904C877.069 192.808 886.573 183.304 898.669 176.392C910.765 169.48 924.493 166.024 939.853 166.024C955.213 166.024 968.845 169.48 980.749 176.392C992.845 183.304 1002.35 192.808 1009.26 204.904C1016.17 217 1019.73 230.824 1019.92 246.376C1019.92 261.736 1016.37 275.464 1009.26 287.56C1002.35 299.656 992.845 309.16 980.749 316.072C968.845 322.984 955.213 326.44 939.853 326.44ZM939.853 306.28C950.989 306.28 960.973 303.688 969.805 298.504C978.637 293.32 985.549 286.216 990.541 277.192C995.533 268.168 998.029 257.896 998.029 246.376C998.029 234.856 995.533 224.584 990.541 215.56C985.549 206.344 978.637 199.144 969.805 193.96C960.973 188.776 950.989 186.184 939.853 186.184C928.717 186.184 918.733 188.776 909.901 193.96C901.069 199.144 894.061 206.344 888.877 215.56C883.885 224.584 881.389 234.856 881.389 246.376C881.389 257.896 883.885 268.168 888.877 277.192C894.061 286.216 901.069 293.32 909.901 298.504C918.733 303.688 928.717 306.28 939.853 306.28Z" fill="#5A473A"/>
</g>
<defs>
<clipPath id="clip0">
<rect width="1202" height="427" fill="white"/>
</clipPath>
</defs>
</svg>
